<?xml version="1.0" encoding="UTF-8"?>
<svg width="180px" height="116px" viewBox="0 0 180 116" version="1.1" xmlns="http://www.w3.org/2000/svg" xmlns:xlink="http://www.w3.org/1999/xlink" xmlns:sketch="http://www.bohemiancoding.com/sketch/ns">
    <!-- Generator: Sketch 3.5.1 (25234) - http://www.bohemiancoding.com/sketch -->
    <title>Rectangle 11</title>
    <desc>Created with Sketch.</desc>
    <defs></defs>
    <g id="Page-1" stroke="none" stroke-width="1" fill="none" fill-rule="evenodd" sketch:type="MSPage">
        <g id="Desktop" sketch:type="MSArtboardGroup" transform="translate(-91.000000, -124.000000)" fill="#FFFFFF">
            <path d="M218.04852,124 L91,124 L91,240 L271,240 L271,124 L230.118127,124 L223.738913,149.027117 L218.04852,124 Z M104.233921,170.4 L117.677905,135.787097 L124.866701,135.787097 L138.310685,170.4 L130.935166,170.4 L127.340768,161.162097 L113.056535,161.162097 L109.462137,170.4 L104.233921,170.4 Z M143.212137,170.4 L143.212137,135.787097 L152.734959,135.787097 L161.044087,160.133065 L169.609959,135.787097 L177.965768,135.787097 L177.965768,170.4 L171.337137,170.4 L171.337137,144.276613 L162.911307,168.084677 L157.122925,168.084677 L148.860477,143.925806 L148.860477,170.4 L143.212137,170.4 Z M186.60166,170.4 L186.60166,135.787097 L193.790456,135.787097 L193.790456,170.4 L186.60166,170.4 Z M202.449689,170.4 L202.449689,135.787097 L209.638485,135.787097 L209.638485,165.48871 L225.206432,165.48871 L225.206432,170.4 L202.449689,170.4 Z M129.207988,229.031452 L129.207988,194.395161 L133.806017,194.395161 L133.806017,199.166129 C134.755191,197.388701 135.933862,196.05565 137.342064,195.166935 C138.750266,194.278221 140.395737,193.833871 142.278527,193.833871 C145.406136,193.833871 147.825718,194.987623 149.537344,197.295161 C151.248971,199.6027 152.104772,202.611809 152.104772,206.322581 C152.104772,208.739259 151.707992,211.038968 150.914419,213.221774 C150.120847,215.404581 148.887716,217.143004 147.21499,218.437097 C145.542263,219.731189 143.647832,220.378226 141.531639,220.378226 C140.691386,220.378226 139.582735,220.253496 138.205654,220.004032 C136.828572,219.754569 135.362041,218.725547 133.806017,216.916935 L133.806017,229.031452 L129.207988,229.031452 Z M172.364108,216.566129 C170.994806,217.829039 169.644976,218.780104 168.314575,219.419355 C166.984174,220.058605 165.681023,220.378226 164.405083,220.378226 C162.615655,220.378226 160.950734,219.785759 159.41027,218.600806 C157.869806,217.415854 157.099585,215.685226 157.099585,213.408871 C157.099585,210.914235 158.173226,208.852293 160.320539,207.222984 C162.467853,205.593675 165.898835,204.779032 170.613589,204.779032 L171.687241,204.779032 L171.687241,201.715323 C171.687241,200.499187 171.523861,199.614384 171.197095,199.060887 C170.87033,198.50739 170.36074,198.074733 169.668309,197.762903 C168.975878,197.451074 168.116188,197.295161 167.089212,197.295161 C164.708494,197.295161 162.109973,198.043541 159.293568,199.540323 L159.293568,195.728226 C162.390057,194.465316 165.307559,193.833871 168.046162,193.833871 C169.539945,193.833871 170.913116,194.071637 172.165716,194.547177 C173.418315,195.022717 174.418046,195.771097 175.164938,196.792339 C175.911829,197.81358 176.28527,199.454559 176.28527,201.715323 L176.28527,213.221774 C176.28527,214.500275 176.38641,215.361691 176.588693,215.806048 C176.790976,216.250405 177.074946,216.589515 177.440612,216.823387 C177.806278,217.057259 178.230288,217.174194 178.712656,217.174194 C178.914939,217.174194 179.210579,217.143011 179.599585,217.080645 L179.926349,219.629839 C178.883812,220.128766 177.732371,220.378226 176.471992,220.378226 C175.631739,220.378226 174.822618,220.105379 174.044606,219.559677 C173.266594,219.013976 172.706433,218.016136 172.364108,216.566129 Z M185.784751,228.23629 L186.321577,224.237097 C188.982378,225.500006 191.61202,226.131452 194.210581,226.131452 C197.120346,226.131452 199.139258,225.38697 200.267376,223.897984 C201.395493,222.408998 201.959544,220.401626 201.959544,217.875806 L201.959544,213.876613 C201.290453,215.279846 200.247932,216.519349 198.83195,217.595161 C197.415968,218.670973 195.688807,219.208871 193.650415,219.208871 C190.180481,219.208871 187.651979,217.957674 186.064834,215.455242 C184.477689,212.95281 183.684129,210.111306 183.684129,206.930645 C183.684129,204.513966 184.150929,202.257134 185.084544,200.160081 C186.018158,198.063027 187.313529,196.484414 188.970695,195.424194 C190.627861,194.363973 192.522292,193.833871 194.654046,193.833871 C195.603221,193.833871 196.486251,193.94301 197.303164,194.16129 C198.120077,194.379571 198.882517,194.706987 199.590508,195.143548 C200.298499,195.58011 201.08817,196.297307 201.959544,197.295161 L201.959544,194.395161 L206.580913,194.395161 L206.580913,212.870968 C206.580913,218.250027 206.133563,221.92956 205.238849,223.909677 C204.344135,225.889795 202.943734,227.331985 201.037604,228.23629 C199.131474,229.140596 196.863602,229.592742 194.233921,229.592742 C193.378108,229.592742 192.456177,229.545968 191.468102,229.452419 C190.480026,229.358871 189.600886,229.238038 188.830654,229.089919 C188.060421,228.9418 187.045131,228.65726 185.784751,228.23629 Z M234.075726,218.975 C230.994798,219.910489 228.357376,220.378226 226.163382,220.378226 C222.22664,220.378226 219.130198,219.049072 216.873963,216.390726 C214.617727,213.732379 213.489627,210.594642 213.489627,206.977419 C213.489627,204.591924 213.987547,202.323398 214.983402,200.171774 C215.979258,198.020151 217.282409,196.422048 218.892894,195.377419 C220.503379,194.33279 222.397811,193.810484 224.576245,193.810484 C227.501571,193.810484 229.835572,194.862893 231.57832,196.967742 C233.321067,199.072591 234.192427,202.222022 234.192427,206.416129 L234.169087,207.819355 L218.181017,207.819355 C218.42998,210.064527 218.912341,211.795155 219.628112,213.01129 C220.343883,214.227425 221.296934,215.174593 222.487293,215.852823 C223.677651,216.531052 225.190862,216.870161 227.026971,216.870161 C227.960586,216.870161 228.890296,216.788307 229.816131,216.624597 C230.741965,216.460886 232.161816,216.028229 234.075726,215.326613 L234.075726,218.975 Z M236.783195,170.095968 L236.783195,164.155645 C240.502093,165.714793 243.684115,166.494355 246.329357,166.494355 C248.181026,166.494355 249.639777,166.081187 250.705654,165.254839 C251.77153,164.42849 252.304461,163.305921 252.304461,161.887097 C252.304461,160.764511 251.96992,159.817343 251.30083,159.045565 C250.631739,158.273786 249.363599,157.357801 247.496369,156.297581 L245.185685,155.01129 C242.089196,153.265045 239.903015,151.592884 238.627075,149.994758 C237.351135,148.396632 236.713174,146.529581 236.713174,144.393548 C236.713174,141.540308 237.759585,139.248396 239.852438,137.517742 C241.945291,135.787088 244.711082,134.921774 248.149896,134.921774 C250.904059,134.921774 254.008281,135.319351 257.462656,136.114516 L257.462656,141.657258 C253.93048,140.331983 251.137458,139.669355 249.083506,139.669355 C247.496361,139.669355 246.224331,140.024056 245.267376,140.733468 C244.310421,141.44288 243.83195,142.374457 243.83195,143.528226 C243.83195,144.479306 244.16649,145.313437 244.835581,146.030645 C245.504671,146.747853 246.765032,147.628758 248.616701,148.673387 L251.090768,150.053226 C254.42066,151.924203 256.715761,153.647035 257.976141,155.221774 C259.236521,156.796513 259.866701,158.714236 259.866701,160.975 C259.866701,164.186844 258.67636,166.70483 256.295643,168.529032 C253.914926,170.353235 250.631764,171.265323 246.446058,171.265323 C243.676335,171.265323 240.455413,170.875542 236.783195,170.095968 Z" id="Rectangle-11" sketch:type="MSShapeGroup"></path>
        </g>
    </g>
</svg>